<svg width="217" height="66" viewBox="0 0 217 66" fill="none" xmlns="http://www.w3.org/2000/svg">
<g clip-path="url(#clip0_459_37)">
<path d="M57.4266 25.0592C57.5474 25.4379 57.6683 25.8166 57.765 26.1953C58.1598 27.6215 58.4257 29.1041 58.5627 30.6029C60.2226 31.4811 61.3184 32.4642 61.3587 33.1168V33.1571V33.1974C61.3184 33.6728 60.6819 34.3658 59.6505 35.0345C59.6102 35.0587 59.5699 35.0829 59.5296 35.1151C59.4813 35.1474 59.4329 35.1796 59.3765 35.2118C59.3201 35.244 59.2637 35.2763 59.2073 35.3085L59.1751 35.3246C59.1428 35.3488 59.1026 35.3649 59.0703 35.3891C58.9575 35.4535 58.8447 35.518 58.74 35.5744L58.7158 35.5905C58.603 35.655 58.4821 35.7114 58.3532 35.7759L58.2485 35.8323C58.1437 35.8806 58.039 35.937 57.9261 35.9854L57.8617 36.0176L57.1204 36.356V36.3399C56.1374 36.7508 55.0173 37.1376 53.7765 37.4921C53.4058 37.5969 53.0029 37.7097 52.5275 37.8305L52.4631 37.8467L52.2455 37.9031C52.2133 37.9031 52.1811 37.9192 52.1488 37.9272L51.9232 37.9836C51.8426 38.0078 51.754 38.0239 51.6654 38.0481L51.3431 38.1206C49.3609 38.5718 47.1934 38.9506 44.905 39.2406L44.2846 39.3212L44.3249 38.6927C44.4377 36.8233 44.5021 34.9298 44.5102 33.0846C44.5183 31.4973 44.486 29.8454 44.4135 28.1775C42.9631 27.9358 40.9326 27.7746 39.7562 27.6941C39.8448 29.4828 39.8851 31.2878 39.8771 33.0524C39.869 35.1312 39.7884 37.2182 39.6515 39.2729L39.6192 39.7321L39.1599 39.7563C37.1052 39.8772 35.0183 39.9255 32.9395 39.9175C31.1587 39.9094 29.3377 39.845 27.5408 39.7402C27.6295 40.8119 27.7906 42.7054 27.984 44.4056C29.6519 44.4942 31.3118 44.5425 32.9153 44.5506C34.4382 44.5587 36.0175 44.5264 37.7579 44.4539C40.5539 44.3411 43.2935 44.1074 45.8961 43.769L46.5165 43.6884C47.4915 43.5595 48.4262 43.4145 49.3125 43.2533L50.497 43.0438L49.8363 44.051C48.257 46.4683 46.2345 48.4747 43.8253 50.0137L42.81 50.6663L43.0357 49.4819C43.2774 48.2088 43.4949 46.847 43.6883 45.4208C41.8351 45.6142 40.1188 45.6948 38.9666 45.7351C38.6201 48.1201 38.1769 50.3521 37.6451 52.3504L37.5645 52.6566L37.2503 52.721C34.3334 53.3576 31.3843 53.3415 28.4755 52.6727L28.1693 52.6002L28.0888 52.294C27.7342 50.8758 27.42 49.3368 27.1541 47.7092L27.1299 47.5803L27.001 46.7423C26.9688 46.5086 26.9204 46.2266 26.8801 45.9365V45.9204C26.6062 43.9463 26.3967 41.8513 26.2597 39.6919L26.2275 39.2003C26.2275 39.1439 26.2275 39.0875 26.2194 39.0311L26.2033 38.7008C26.2033 38.5638 26.1872 38.4268 26.1791 38.2898L26.0905 36.3882L26.1146 36.4205C26.0824 35.2602 26.0663 34.1079 26.0744 32.9799C26.0824 30.901 26.163 28.8141 26.3 26.7594L26.3322 26.3001L26.7915 26.2759C28.8462 26.155 30.9412 26.1067 33.012 26.1148C34.6396 26.1228 36.3156 26.1792 37.9916 26.2679H38.1286L38.604 26.292C38.6443 26.292 38.6845 26.292 38.7168 26.3001H38.7409C38.7651 26.3001 38.7893 26.3001 38.8135 26.3001H38.9907C39.0713 26.3162 39.1519 26.3162 39.2325 26.3243L39.6998 26.3565C41.2791 26.4774 42.8503 26.6385 44.3652 26.8399L44.9775 26.9125C47.6285 27.2751 50.0941 27.7505 52.3019 28.3306L52.6081 28.4112L52.6726 28.7254C53.2205 31.2314 53.2769 33.7776 52.8498 36.3077C54.0263 36.0176 55.67 35.5502 57.1607 34.8492C57.2332 33.8904 57.2574 32.9315 57.2171 32.0129V31.9324C57.1929 31.5456 57.1687 31.1588 57.1365 30.7962L57.1043 30.482C56.9673 29.1605 56.7175 27.8471 56.371 26.574C56.1212 25.6555 55.7909 24.7127 55.4041 23.77C55.3638 23.6652 55.3235 23.5686 55.2752 23.4719C55.1543 23.1818 55.0335 22.9239 54.9207 22.6822C52.3019 17.1063 47.693 12.7713 41.9479 10.4669L41.7223 10.3782L41.6497 10.1445C40.2477 5.52753 37.6048 0.0241729 33.1812 0H33.149C28.7495 0 26.0582 5.45501 24.5676 10.0317L24.4951 10.2654L24.2614 10.354C18.468 12.586 13.7865 16.9291 11.0952 22.5855C10.9744 22.8353 10.8535 23.1173 10.7165 23.4316L10.6762 23.5202C10.644 23.5847 10.6198 23.6491 10.5957 23.7136C9.68515 25.9133 9.09694 28.2178 8.85521 30.5787C8.82298 30.8768 8.80687 31.1749 8.79075 31.4328V31.5617C8.77464 31.6342 8.77464 31.6987 8.76658 31.7712C8.71823 32.6898 8.72629 33.6406 8.79075 34.5994C9.65292 34.9459 11.2886 35.5664 13.0855 36.1223C12.6826 33.5761 12.7712 31.0138 13.3514 28.5079L13.4239 28.2017L13.7301 28.1211C15.7364 27.6215 17.9764 27.2025 20.3776 26.8722C20.4582 25.4057 20.6757 23.351 20.8127 22.1504C19.3704 22.3277 17.9764 22.5291 16.663 22.7628L15.4786 22.9723L16.1393 21.9651C17.7186 19.5478 19.7411 17.5414 22.1584 16.0024L23.1736 15.3578L22.948 16.5423C22.7143 17.7751 22.5048 19.0805 22.3195 20.418C22.0053 22.7386 21.7716 25.2365 21.6265 27.823C21.5299 29.5957 21.4735 31.32 21.4654 32.9396C21.4573 34.8009 21.4976 36.6944 21.5863 38.5557L21.6185 39.1842L20.9981 39.0956C19.5477 38.8942 18.1376 38.6605 16.792 38.3946L16.7033 38.3785L16.2843 38.2898C16.2279 38.2737 16.1635 38.2657 16.1071 38.2495L15.962 38.2173C15.535 38.1287 15.0999 38.0239 14.6728 37.9272L14.4794 37.8789C14.2538 37.8225 14.0121 37.7661 13.7301 37.6855L13.4158 37.6049C12.9404 37.476 12.5375 37.3632 12.1508 37.2504C10.926 36.8797 9.80601 36.4849 8.83104 36.0659V36.0901L7.95276 35.6711C7.90441 35.6469 7.86412 35.6308 7.82384 35.6066L7.59822 35.4938C5.84166 34.5914 4.6733 33.5681 4.63302 32.8993V32.859V32.8187C4.68136 32.158 5.81749 31.1749 7.51765 30.3047C7.71909 28.4434 8.13002 26.5902 8.7424 24.7933C4.71359 26.2195 0.0240544 28.7657 -0.00011843 32.8187C-0.0242913 37.2343 5.43878 39.9336 10.0316 41.4242L10.2653 41.4968L10.3539 41.7304C12.5698 47.4836 17.0498 52.2859 22.674 54.9369C22.1745 53.0192 21.7313 50.763 21.4976 49.5302C19.2818 47.9912 17.4285 46.0735 16.0023 43.8335L15.3577 42.8182L16.5422 43.0438C18.1457 43.35 19.8458 43.6079 21.5943 43.8254L22.0053 43.8738L22.0536 44.2847C22.2309 45.8801 22.4565 47.4594 22.7143 48.9823C23.2864 52.2859 24.0277 55.1947 24.9302 57.6362L25.0349 57.9263C26.4289 61.6005 28.9187 65.9758 32.8266 66C33.3262 66 33.8177 65.9355 34.2931 65.8066C36.9602 65.0734 39.2163 62.1968 40.9971 57.2575C40.5861 57.3945 40.1752 57.5234 39.7723 57.6281C38.3783 58.0068 36.936 58.2727 35.4776 58.4178C34.5671 60.1824 33.5518 61.3346 32.875 61.3669H32.8428H32.8105C32.0612 61.3105 30.9573 59.9407 30.0065 57.8779L29.6197 57.048L30.5302 57.1447C32.0612 57.3058 33.6244 57.3139 35.1714 57.1769C36.6218 57.048 38.056 56.7901 39.4339 56.4114C40.3202 56.1697 41.2388 55.8554 42.1413 55.4848C42.2702 55.4365 42.391 55.3801 42.52 55.3317C42.7295 55.2431 42.9793 55.1303 43.229 55.0175C48.8452 52.4068 53.2205 47.7817 55.533 41.9963L55.6217 41.7707L55.8553 41.6982C60.4643 40.2559 65.9677 37.613 65.9918 33.1974C66.0079 29.8938 63.1233 27.1623 57.4185 25.0753L57.4266 25.0592ZM26.9123 20.9982C27.2749 18.3472 27.7503 15.8816 28.3305 13.6738L28.395 13.4321C28.5158 12.9647 28.6367 12.5457 28.7495 12.159C29.104 10.9745 29.4908 9.89476 29.8937 8.94396H29.8695L30.2724 8.09791C30.2804 8.07374 30.2966 8.04957 30.3046 8.03345L30.3288 7.97705C31.3924 5.77732 32.3915 4.81846 32.9636 4.66536C33.02 4.64925 33.0684 4.64119 33.1248 4.64119H33.157H33.1892C33.9386 4.69759 35.0425 6.06739 35.9933 8.13014L36.3801 8.96008L35.4695 8.86339C34.1723 8.72641 32.8266 8.70223 31.473 8.79087C31.1345 9.63692 30.3771 11.5707 29.9259 13.0856C31.9725 12.7713 34.0514 12.7713 36.098 13.0856V13.0695L36.9844 13.2467C37.0086 13.2467 37.0327 13.2548 37.0569 13.2628C37.0569 13.2628 37.065 13.2628 37.073 13.2628C37.1133 13.2709 37.1616 13.279 37.2019 13.287H37.2181C37.3147 13.3112 37.3953 13.3273 37.4759 13.3434L37.7821 13.4159V13.4321C40.1752 14.0203 42.4233 15.0355 44.4538 16.4376L44.5585 16.5101C44.6955 16.6068 44.8164 16.6873 44.9292 16.776C45.0662 16.8807 45.2032 16.9855 45.3321 17.0822L45.4127 17.1466C45.5577 17.2594 45.7108 17.3803 45.8558 17.5012C45.88 17.5253 45.9042 17.5414 45.9364 17.5656C45.9767 17.5979 46.017 17.6301 46.0573 17.6623L46.2748 17.8476V17.8638C47.7171 19.1288 48.958 20.5631 49.9652 22.1504L50.6179 23.1657L49.4334 22.9401C47.8461 22.6419 46.1459 22.376 44.3813 22.1585L43.9703 22.1101L43.922 21.6992C43.7528 20.2005 43.5513 18.7098 43.3016 17.2675C41.5531 16.0347 39.3775 15.2531 38.1205 14.8744C38.5556 16.784 38.9102 18.8629 39.1841 21.0546L39.2647 21.675L38.6362 21.6347C36.7668 21.5219 34.8733 21.4575 33.0281 21.4494C31.1668 21.4413 29.2813 21.4816 27.4119 21.5703L26.7834 21.6025L26.8721 20.9821L26.9123 20.9982Z" fill="white"/>
</g>
<path d="M78.3747 40.4102V31.3085H100.5V40.4102H96.4273V34.5771H90.9462V49.2856H86.9233V34.5771H82.4479V40.4102H78.3747ZM117.176 49.4114C113.974 49.4114 111.494 48.6487 109.734 47.1234C107.974 45.5813 107.094 43.3016 107.094 40.2845C107.094 37.2841 107.974 35.0213 109.734 33.4959C111.494 31.9538 114.033 31.1828 117.352 31.1828H121.878C125.196 31.1828 127.736 31.9538 129.496 33.4959C131.256 35.0213 132.136 37.2841 132.136 40.2845C132.136 43.3016 131.256 45.5813 129.496 47.1234C127.736 48.6487 125.238 49.4114 122.003 49.4114H117.176ZM117.628 34.4514C115.768 34.4514 114.318 34.7866 113.279 35.4571C112.239 36.1275 111.586 37.1919 111.318 38.6502H127.912C127.644 37.1919 126.99 36.1275 125.951 35.4571C124.911 34.7866 123.462 34.4514 121.601 34.4514H117.628ZM117.704 46.1428H121.601C123.478 46.1428 124.928 45.8075 125.951 45.1371C126.99 44.4666 127.644 43.3938 127.912 41.9188H111.318C111.586 43.3938 112.239 44.4666 113.279 45.1371C114.318 45.8075 115.793 46.1428 117.704 46.1428ZM139.356 49.2856V31.3588H143.379V38.6754H149.363L155.271 31.3588H160.275L152.883 40.3096L160.275 49.2856H155.271L149.338 41.9439H143.379V49.2856H139.356ZM167.003 49.2856V31.3085H186.715V34.5771H171.026V38.5496H185.257V41.8182H171.026V46.0171H186.715V49.2856H167.003ZM194.184 49.2856V31.3085H198.257L210.98 44.2319V31.3085H215.002V49.2856H210.929L198.207 36.3371V49.2856H194.184Z" fill="white"/>
<defs>
<clipPath id="clip0_459_37">
<rect width="66" height="66" fill="white"/>
</clipPath>
</defs>
</svg>
