<svg width="40" height="40" viewBox="0 0 40 40" fill="none" xmlns="http://www.w3.org/2000/svg">
<circle cx="20" cy="20" r="20" fill="#FB4762"/>
<path d="M24.0156 30.5672C24.1253 29.2379 24.3998 27.9289 24.8307 26.6707L24.8019 26.6588L24.0156 30.5672ZM24.0156 30.5672L23.9843 30.5666L23.9843 30.5665L24.0156 30.5672Z" stroke="white" stroke-width="2"/>
<path d="M23.9598 26.667C21.5582 27.6275 18.8792 27.6275 16.4776 26.667" stroke="white" stroke-width="2"/>
<path d="M18.7223 22.9258V16.5659C18.7223 15.5333 17.8843 14.6953 16.8517 14.6953C15.8192 14.6953 14.9812 15.5333 14.9812 16.5659C14.9812 17.5984 15.8192 18.4364 16.8517 18.4364H23.5857C24.6183 18.4364 25.4563 17.5984 25.4563 16.5659C25.4563 15.5333 24.6183 14.6953 23.5857 14.6953C22.5532 14.6953 21.7152 15.5333 21.7152 16.5659V22.9258" stroke="white" stroke-width="2" stroke-linecap="round"/>
</svg>
